<?xml version="1.0" encoding="UTF-8"?>
<svg id="original" xmlns="http://www.w3.org/2000/svg" xmlns:xlink="http://www.w3.org/1999/xlink" viewBox="0 0 1349.78 1220">
  <defs>
    <style>
      .cls-1 {
        fill: url(#degradado_2-2);
      }

      .cls-2 {
        fill: url(#degradado_2);
      }

      .cls-3 {
        fill: url(#degradado_2-3);
      }

      .cls-4 {
        fill: url(#degradado_2-4);
      }

      .cls-5 {
        fill: url(#degradado_2-5);
      }
    </style>
    <linearGradient id="degradado_2" data-name="degradado 2" x1="123.09" y1="377.43" x2="1441.67" y2="377.43" gradientUnits="userSpaceOnUse">
      <stop offset="0" stop-color="#e63312"/>
      <stop offset=".06" stop-color="#e73c0f"/>
      <stop offset=".17" stop-color="#ea5509"/>
      <stop offset=".3" stop-color="#ef7d00"/>
      <stop offset=".47" stop-color="#f39400"/>
      <stop offset=".6" stop-color="#ffd500"/>
      <stop offset=".8" stop-color="#aecc53"/>
      <stop offset=".94" stop-color="#76b82a"/>
    </linearGradient>
    <linearGradient id="degradado_2-2" data-name="degradado 2" x1="227.73" y1="430.72" x2="1468.75" y2="430.72" xlink:href="#degradado_2"/>
    <linearGradient id="degradado_2-3" data-name="degradado 2" x1="18.88" y1="749.85" x2="1285.26" y2="749.85" xlink:href="#degradado_2"/>
    <linearGradient id="degradado_2-4" data-name="degradado 2" x1="150.26" y1="646.31" x2="1277.32" y2="646.31" xlink:href="#degradado_2"/>
    <linearGradient id="degradado_2-5" data-name="degradado 2" x1="106.47" y1="556.72" x2="1064.23" y2="556.72" xlink:href="#degradado_2"/>
  </defs>
  <g id="color_png">
    <path class="cls-2" d="m592.79,286.71c.78,0,1.59.05,2.4.13,8.34.92,18.01,3.35,27.24,20.73,9.08,17.11,14.05,42.24,13.62,68.96-.31,19.62-6.7,41.49-17.09,58.5-6.95,11.39-19.01,25.99-36.96,30.93-5.22,1.44-11.16,2.19-17.19,2.19-7.23,0-25.29-1.28-36.75-13.17-16.39-17-10.62-50.35-8.15-64.61,4.57-26.39,17.63-55.77,34.1-76.68,13.3-16.9,27.8-26.98,38.78-26.98m0-71c-74.28,0-130.28,89.97-142.84,162.56-3.79,21.89-14.39,83.07,27,126,24.09,24.98,57.22,34.89,87.86,34.89,12.71,0,24.98-1.7,36.02-4.74,69.28-19.06,105.23-95.02,106.21-156.75,1.1-69.2-24.81-152.69-104.1-161.4-3.42-.38-6.81-.56-10.16-.56h0Z"/>
    <path class="cls-1" d="m985.69,645.82c-16.83,0-31.78-12.02-34.89-29.17-3.5-19.29,9.3-37.77,28.59-41.27,7.46-1.35,73.54-14.76,97-68.07,8.31-18.88,10.69-37.76,7.09-56.12-2.96-15.1-11.01-41.95-31.61-52.18-23.93-11.89-60.22.01-84.42,27.68-11.34,12.97-30.36,15.92-45.09,7-14.74-8.92-20.95-27.12-14.73-43.19,3.83-9.89,15.06-44.51-1.05-74.74-3.58-6.71-10.24-19.21-23.94-25.47-18.92-8.65-39.07.34-42.92,2.23-14.95,7.35-22.75,20.67-27.41,28.62-25.76,43.97-16.95,116.4-.12,169.53,5.92,18.69-4.43,38.64-23.12,44.56-18.69,5.92-38.64-4.43-44.56-23.12-5.05-15.95-14.08-48.37-17.75-86.26-5.46-56.45,2.71-103.75,24.29-140.59,6.96-11.88,23.25-39.69,57.36-56.46,12.5-6.14,56.91-24.52,103.77-3.08,35.52,16.25,51.17,45.59,57.06,56.64,8.83,16.55,13.54,33.23,15.58,49.06,3.07-1.06,6.17-2.03,9.3-2.89,31.28-8.64,63.01-6.19,89.36,6.9,35.48,17.63,60.23,53.89,69.69,102.1,4.43,22.6,5.99,58.02-11.78,98.39-37.43,85.06-130.94,106-149.3,109.33-2.14.39-4.28.58-6.38.58Z"/>
    <path class="cls-3" d="m837.02,897.9c-8.93,0-17.93-.6-26.88-1.81-42.8-5.79-81.37-24.98-108.61-54.03-40.83-43.54-45.96-97.39-48.15-120.39-3.05-32,.5-64.05,10.55-95.25,6.01-18.66,26.01-28.92,44.67-22.91,18.66,6.01,28.92,26.01,22.91,44.67-7.07,21.96-9.58,44.42-7.45,66.76,1.75,18.42,5.02,52.7,29.26,78.55,34.83,37.14,98.76,41.32,134.36,21.84,15.94-8.72,31.16-24.87,35.68-30.35,12.26-14.96,18.21-28.97,20.2-34.3,3.3-8.85,5.65-18.3,6.99-28.09,2.59-18.93,19.67-32.42,38.69-30.52,19.01,1.89,33.11,18.49,31.91,37.55-.44,7.01.71,14.49,1.22,16.95.21.87.29,1.38.43,2.29,1.68,10.78,10.32,20.58,15.17,24.67,5.43,4.59,11.9,7.8,19.23,9.55,19.07,4.55,30.84,23.7,26.29,42.77-4.55,19.07-23.7,30.84-42.77,26.29-17.98-4.29-34.77-12.72-48.57-24.38-1.92-1.63-4.36-3.81-7.08-6.53-2.12,2.89-4.38,5.82-6.8,8.77-2.54,3.1-25.7,30.76-56.5,47.62-24.21,13.25-54.08,20.27-84.75,20.27Z"/>
    <path class="cls-4" d="m832.7,753.81c-18.79,0-34.47-14.75-35.43-33.72-1.36-27.06,1.06-54.13,7.2-80.48,6.86-29.44,18.23-57.55,33.81-83.55,10.08-16.82,31.88-22.28,48.7-12.2,16.82,10.08,22.28,31.88,12.2,48.7-11.78,19.66-20.38,40.91-25.56,63.15-4.63,19.9-6.46,40.37-5.44,60.82.98,19.58-14.1,36.25-33.68,37.23-.6.03-1.21.05-1.81.05Z"/>
    <path class="cls-5" d="m553.3,570.55c-63.82-51.63-143.8-58.79-201.38-58.79-11.68,0-22.44.29-31.95.57,64.55-35.93,112.65-112.54,108.44-188.44,0-.12-.26-5.03-.84-10.78-.44-4.35-.84-7.03-1.14-8.85,0,0-.02-.12-.04-.24-7.08-42.17-30.87-64.58-30.87-64.58s-25.97-26.64-68.12-25.29c-5.23.17-24.29.31-37.65,7.07-13.35,6.76-99.56,45.7-95.91,299.94.06,4.18.14,7.3.19,9.19.11,107.03,33.9,209.56,69.77,280.1-19.18-3.64-37.72,8.91-41.46,28.1-3.74,19.24,8.82,37.88,28.07,41.63,18.47,3.59,37.27,6.72,55.89,9.31,7.66,1.06,15.35,2.04,23.07,2.93.06.02.12.03.18.03,34.82,4.05,70.07,6.36,105.11,6.89.8.01,1.59.01,2.37.01h.63c.97,0,1.99,0,3.06-.01,31.31-.16,104.67-3.79,158.31-71.99.19-.24.39-.5.59-.76.31-.4.63-.81.96-1.24.16-.21.32-.42.49-.64,10.4-13.78,30.56-44.75,33.96-87.36,7.37-92.7-70.96-158.09-81.73-166.8Zm-278.98-186.33c12.2-68.13,32.33-93.21,42.3-97.28.93-.38,1.85-.78,2.77-1.21,1.98-.91,5.08-1.45,8.29-1.45,7.27,0,14.68,2.58,18.88,6.58,4.99,4.74,7.79,13.34,9.35,22.27h0c.6,2.78,1,5.84,1.2,9.14.18,1.9.31,3.77.41,5.55,1.23,22.13-5.4,46.7-18.68,69.17-13.37,22.65-32.34,41.58-53.4,53.3-6.35,3.54-12.93,6.41-19.42,8.76,1.47-27.18,4.25-52.21,8.3-74.83Zm289.93,347.5c-.03.34-.06.68-.1,1.02-.01.39-.02.77-.04,1.16-1.15,23.73-14.63,41.57-20.36,48.88-.18.23-.36.46-.53.68-14.91,18.95-33.1,31.54-55.62,38.5-20.7,6.39-40.45,6.39-49.94,6.39h-.63c-.75,0-1.5,0-2.26-.01-.06.01-.12.01-.19,0-.8,0-1.6-.01-2.41-.01-1.09-.02-2.19-.03-3.31-.05-1.16-.01-2.35-.04-3.54-.06-1.66-.04-3.34-.08-5.03-.12-.8-.03-1.6-.05-2.41-.08-6.69-.2-13.61-.5-20.51-.87-1.75-.1-3.5-.19-5.24-.29-1.74-.1-3.48-.21-5.2-.31-5.64-.36-11.16-.75-16.42-1.17-.65-.05-1.29-.1-1.93-.15-.2-.02-.4-.03-.6-.05-3.33-.27-6.54-.55-9.59-.84-.05,0-.11-.01-.17-.02-1.46-.13-2.89-.27-4.27-.41-.06-.08-.12-.17-.18-.26-14.61-20.92-33.11-54.62-49.19-95.8-13.58-34.79-29.15-84.15-36-140.58,16.8-1.7,35.9-3.46,53.47-3.97,9.76-.29,19.39-.54,29.87-.54,44.46,0,109.09,4.45,156.72,42.99,6.16,4.98,60.04,50.28,55.61,105.97Z"/>
  </g>
</svg>